#!OML:ASF H:\Terrain\Patient Classification 1\Animal2\Wednesday\Animal2.ASF
:FULLY-SPECIFIED
:DEGREES
2170
root 9.39956 15.0639 -18.3255 29.8939 27.3069 5.96071
lowerback 28.6267 -2.40635 1.49956
upperback 10.3721 -2.58234 -3.7062
thorax -4.38075 -1.0184 -4.15409
lowerneck 7.25795 8.44772 8.74217
upperneck -12.7838 10.0519 -22.6204
head -3.21901 6.10517 -8.95991
rclavicle 8.74653e-015 -7.23576e-014
rhumerus -13.7892 33.7376 -67.0045
rradius 71.9751
rwrist -30.0855
rhand -5.74482 27.6935
rfingers 7.12502
rthumb 20.0776 -1.28906
lclavicle 8.74653e-015 -7.23576e-014
lhumerus -355.566 -16.5063 416.857
lradius 68.826
lwrist 17.7553
lhand -20.6263 21.944
lfingers 7.12502
lthumb 5.7352 51.8464
rfemur -38.8543 9.03901 -13.4324
rtibia 55.8806
rfoot -38.4967 -25.4428
rtoes -20.267
lfemur -68.7824 0.580429 3.92638
ltibia 46.1009
lfoot -15.9785 -14.4491
ltoes -49.0946
2171
root 9.39979 15.0512 -18.3284 29.9567 27.4711 5.7959
lowerback 28.5156 -2.48904 1.82075
upperback 10.3031 -2.60911 -3.69981
thorax -4.42026 -1.03001 -4.32511
lowerneck 7.33321 8.41261 8.66415
upperneck -12.8109 10.0183 -22.3279
head -3.26955 6.0763 -8.85732
rclavicle 5.32743e-014 -2.18663e-015
rhumerus -13.9022 34.1058 -67.1142
rradius 68.6606
rwrist -29.8273
rhand -7.25925 27.0849
rfingers 7.12502
rthumb 18.6215 -2.04383
lclavicle 5.32743e-014 -2.18663e-015
lhumerus -355.654 -16.8362 416.956
lradius 66.1504
lwrist 17.9055
lhand -20.6394 22.3132
lfingers 7.12502
lthumb 5.72254 52.2159
rfemur -39.0421 8.94331 -13.2412
rtibia 56.0738
rfoot -38.5313 -25.5746
rtoes -20.3115
lfemur -69.0469 0.718139 4.08568
ltibia 46.2172
lfoot -16.0432 -14.5724
ltoes -49.1
2172
root 9.40388 15.0407 -18.3333 30.0214 27.5551 5.77735
lowerback 28.4912 -2.53406 1.97517
upperback 10.2776 -2.62392 -3.64682
thorax -4.4422 -1.03701 -4.35092
lowerneck 7.22443 8.4158 8.37844
upperneck -12.7255 10.0223 -22.0323
head -3.26197 6.06331 -8.70082
rclavicle 5.38706e-014 -5.92378e-014
rhumerus -13.9466 34.3136 -67.1791
rradius 65.2649
rwrist -28.9231
rhand -8.83005 26.5954
rfingers 7.12502
rthumb 17.11 -2.67124
lclavicle 5.38706e-014 -5.92378e-014
lhumerus -355.863 -17.1404 417.214
lradius 63.5259
lwrist 18.1436
lhand -20.9961 22.5928
lfingers 7.12502
lthumb 5.3781 52.5046
rfemur -39.1932 8.71931 -13.1838
rtibia 56.2787
rfoot -38.4684 -25.4929
rtoes -20.6181
lfemur -69.2287 0.764896 4.10341
ltibia 46.3282
lfoot -16.1357 -14.6728
ltoes -49.305
2173
root 9.4078 15.0375 -18.3357 30.0267 27.5531 5.90123
lowerback 28.5757 -2.54357 1.98735
upperback 10.2883 -2.63001 -3.64756
thorax -4.47057 -1.03893 -4.35614
lowerneck 7.18214 8.38756 8.24293
upperneck -12.6941 9.9804 -21.9165
head -3.26812 6.03803 -8.6367
rclavicle -4.27387e-014 -6.75868e-015
rhumerus -13.9825 34.6272 -67.2095
rradius 61.8479
rwrist -28.0071
rhand -10.564 26.2761
rfingers 7.12502
rthumb 15.4405 -3.12721
lclavicle -4.27387e-014 -6.75868e-015
lhumerus -356.075 -17.4599 417.46
lradius 60.9276
lwrist 18.2741
lhand -21.4172 23.3006
lfingers 7.12502
lthumb 4.97148 53.2223
rfemur -39.2234 8.63667 -13.2694
rtibia 56.4677
rfoot -38.4874 -25.4658
rtoes -20.6355
lfemur -69.25 0.676931 3.99871
ltibia 46.4175
lfoot -16.1559 -14.6344
ltoes -49.6134
2174
root 9.40721 15.0328 -18.3334 30.0431 27.5009 6.06318
lowerback 28.6398 -2.52528 1.87352
upperback 10.3077 -2.63577 -3.68064
thorax -4.4766 -1.04142 -4.32467
lowerneck 7.05068 8.37016 8.2514
upperneck -12.5699 9.96951 -21.925
head -3.20959 6.0213 -8.6257
rclavicle -3.598e-014 -2.98177e-015
rhumerus -14.0087 34.9638 -67.2759
rradius 58.5231
rwrist -27.2529
rhand -11.935 25.7963
rfingers 7.12502
rthumb 14.1196 -3.70393
lclavicle -3.598e-014 -2.98177e-015
lhumerus -356.323 -17.6394 417.688
lradius 58.445
lwrist 18.2675
lhand -21.4405 24.0114
lfingers 7.12502
lthumb 4.94898 53.9336
rfemur -39.2288 8.63962 -13.4181
rtibia 56.6185
rfoot -38.4875 -25.4123
rtoes -19.7455
lfemur -69.2343 0.622762 3.83323
ltibia 46.4817
lfoot -16.1617 -14.6031
ltoes -49.898
2175
root 9.40393 15.0246 -18.3286 30.1115 27.4456 6.18891
lowerback 28.6237 -2.45255 1.74313
upperback 10.3476 -2.57648 -3.69225
thorax -4.41458 -1.01233 -4.28158
lowerneck 6.72984 8.32896 8.36827
upperneck -12.3253 9.94288 -22.0203
head -3.07315 5.98366 -8.64277
rclavicle -5.27773e-014 3.4191e-014
rhumerus -14.1026 35.1338 -67.4635
rradius 55.2191
rwrist -26.2025
rhand -13.2311 25.1868
rfingers 7.12502
rthumb 12.8704 -4.39634
lclavicle -5.27773e-014 3.4191e-014
lhumerus -356.523 -17.8545 417.904
lradius 56.1325
lwrist 18.3991
lhand -21.3903 24.8203
lfingers 7.12502
lthumb 4.99752 54.7413
rfemur -39.2732 8.66831 -13.5646
rtibia 56.7138
rfoot -38.3552 -25.3833
rtoes -19.389
lfemur -69.2627 0.638613 3.69724
ltibia 46.5068
lfoot -16.1998 -14.6297
ltoes -50.1151
2176
root 9.40274 15.018 -18.3242 30.2101 27.4223 6.27404
lowerback 28.4998 -2.35545 1.67093
upperback 10.4184 -2.4686 -3.66335
thorax -4.26402 -0.958463 -4.24377
lowerneck 6.47231 8.28672 8.33767
upperneck -12.2464 9.8882 -22.0092
head -3.01633 5.943 -8.61447
rclavicle -1.49089e-014 -1.40143e-014
rhumerus -14.1845 35.4104 -67.5152
rradius 51.9041
rwrist -25.363
rhand -14.2863 24.9512
rfingers 7.12502
rthumb 11.853 -4.69335
lclavicle -1.49089e-014 -1.40143e-014
lhumerus -356.669 -18.273 418.082
lradius 53.8629
lwrist 18.5125
lhand -21.2829 25.5529
lfingers 7.12502
lthumb 5.10121 55.4715
rfemur -39.3179 8.68841 -13.6908
rtibia 56.7504
rfoot -38.3311 -25.467
rtoes -20.1287
lfemur -69.3248 0.652177 3.63212
ltibia 46.5019
lfoot -16.2592 -14.5873
ltoes -50.234
2177
root 9.404 15.023 -18.3196 30.3364 27.376 6.45829
lowerback 28.3917 -2.24619 1.48012
upperback 10.4738 -2.37332 -3.60101
thorax -4.13433 -0.91386 -4.09537
lowerneck 6.54091 8.22734 8.24149
upperneck -12.5019 9.76215 -22.0569
head -3.12544 5.90427 -8.63455
rclavicle 6.95746e-014 2.01518e-014
rhumerus -14.0894 35.9296 -67.2189
rradius 48.703
rwrist -25.2464
rhand -14.5306 24.8483
rfingers 7.12502
rthumb 11.6174 -4.8097
lclavicle 6.95746e-014 2.01518e-014
lhumerus -356.87 -18.8685 418.277
lradius 51.6273
lwrist 18.7827
lhand -20.8764 26.0366
lfingers 7.12502
lthumb 5.49373 55.9454
rfemur -39.3094 8.69369 -13.8823
rtibia 56.7333
rfoot -38.619 -25.4415
rtoes -20.2823
lfemur -69.3233 0.565934 3.50394
ltibia 46.4782
lfoot -16.3426 -14.4571
ltoes -50.2225
2178
root 9.40471 15.0306 -18.3173 30.3966 27.2775 6.66298
lowerback 28.4412 -2.12819 1.25105
upperback 10.5098 -2.27677 -3.54633
thorax -4.09952 -0.870251 -3.93227
lowerneck 6.57791 8.13001 8.2024
upperneck -12.6914 9.58813 -22.2044
head -3.20806 5.84102 -8.69219
rclavicle 2.33075e-014 5.55355e-015
rhumerus -13.993 36.344 -66.8495
rradius 45.6973
rwrist -24.7297
rhand -14.4363 24.2634
rfingers 7.12502
rthumb 11.7084 -5.38936
lclavicle 2.33075e-014 5.55355e-015
lhumerus -357.178 -19.5603 418.462
lradius 49.6927
lwrist 19.4623
lhand -20.5994 27.0737
lfingers 7.12502
lthumb 5.7611 56.9754
rfemur -39.2536 8.7359 -14.0985
rtibia 56.6775
rfoot -38.9325 -25.1947
rtoes -19.2337
lfemur -69.2297 0.461544 3.30479
ltibia 46.4398
lfoot -16.3926 -14.3426
ltoes -50.1699
2179
root 9.40378 15.0278 -18.3141 30.3782 27.3156 6.59621
lowerback 28.5072 -2.09604 1.3257
upperback 10.4877 -2.21417 -3.48087
thorax -4.14986 -0.841147 -3.92189
lowerneck 6.45993 8.08998 8.11949
upperneck -12.6431 9.52732 -22.21
head -3.18774 5.80795 -8.67126
rclavicle 8.95152e-015 8.32349e-014
rhumerus -14.0536 36.5412 -66.6174
rradius 42.9737
rwrist -23.4267
rhand -14.036 23.1647
rfingers 7.12502
rthumb 12.0944 -6.46578
lclavicle 8.95152e-015 8.32349e-014
lhumerus -357.754 -20.09 418.602
lradius 47.8317
lwrist 19.7093
lhand -20.8567 28.7443
lfingers 7.12502
lthumb 5.51275 58.6526
rfemur -39.1704 8.8748 -14.0754
rtibia 56.5857
rfoot -39.2775 -24.816
rtoes -17.2842
lfemur -69.2468 0.47475 3.37186
ltibia 46.4146
lfoot -16.4169 -14.3273
ltoes -50.2346
2180
root 9.40385 15.0268 -18.3074 30.362 27.4377 6.45838
lowerback 28.5686 -2.13087 1.50714
upperback 10.4123 -2.21173 -3.42726
thorax -4.26659 -0.841445 -3.96723
lowerneck 6.41797 8.09502 8.09186
upperneck -12.576 9.53993 -22.2015
head -3.16112 5.80976 -8.65742
rclavicle -2.64011e-014 5.12492e-016
rhumerus -14.1615 36.5972 -66.4551
rradius 40.5288
rwrist -22.3467
rhand -13.1454 22.0935
rfingers 7.12502
rthumb 12.9531 -7.48442
lclavicle -2.64011e-014 5.12492e-016
lhumerus -358.562 -20.494 418.724
lradius 46.1429
lwrist 19.2025
lhand -19.959 29.7799
lfingers 7.12502
lthumb 6.37936 59.6639
rfemur -39.0634 9.05438 -13.936
rtibia 56.5044
rfoot -39.504 -24.7056
rtoes -16.1738
lfemur -69.3128 0.463877 3.57658
ltibia 46.4109
lfoot -16.4327 -14.3106
ltoes -50.3816
2181
root 9.4064 15.0347 -18.3041 30.3741 27.4704 6.47128
lowerback 28.6627 -2.13112 1.58821
upperback 10.3514 -2.19467 -3.44301
thorax -4.38029 -0.834199 -4.03617
lowerneck 6.46775 8.07028 8.12215
upperneck -12.621 9.51053 -22.1398
head -3.18962 5.79402 -8.64812
rclavicle 3.8266e-015 -7.95605e-014
rhumerus -14.3515 36.3813 -66.3662
rradius 38.1382
rwrist -21.0873
rhand -12.4489 21.6928
rfingers 7.12502
rthumb 13.6244 -7.8413
lclavicle 3.8266e-015 -7.95605e-014
lhumerus -359.355 -21.0967 418.761
lradius 44.6372
lwrist 18.6626
lhand -18.7357 30.2235
lfingers 7.12502
lthumb 7.56025 60.0684
rfemur -39.0329 9.12934 -13.8782
rtibia 56.4765
rfoot -39.047 -25.4169
rtoes -17.8289
lfemur -69.2849 0.380558 3.62366
ltibia 46.4079
lfoot -16.416 -14.2184
ltoes -50.5401
2182
root 9.41144 15.0408 -18.3052 30.4139 27.5495 6.42165
lowerback 28.6842 -2.02855 1.86498
upperback 10.2583 -2.00168 -3.45324
thorax -4.48592 -0.741233 -4.26937
lowerneck 6.69746 7.89666 8.42586
upperneck -12.6696 9.31239 -22.079
head -3.26198 5.68939 -8.69856
rclavicle -5.51627e-015 7.37988e-015
rhumerus -15.0245 35.5137 -66.5055
rradius 35.8908
rwrist -18.9942
rhand -11.8092 21.3534
rfingers 7.12502
rthumb 14.2409 -8.13833
lclavicle -5.51627e-015 7.37988e-015
lhumerus -360.023 -22.25 418.781
lradius 43.3956
lwrist 18.2454
lhand -17.6108 30.5843
lfingers 7.12502
lthumb 8.6459 60.3872
rfemur -39.0335 9.09487 -13.7699
rtibia 56.4317
rfoot -38.7608 -25.9636
rtoes -19.0799
lfemur -69.3343 0.330907 3.71579
ltibia 46.3777
lfoot -16.4032 -14.1558
ltoes -50.741
